#!OML:ASF F:\VICON\USERDATA\INSTALL\rory3\rory3.ASF
:FULLY-SPECIFIED
:DEGREES
166
root -0.19030548675783676 17.766149350877285 54.76220838649771 -2.356088306638921 -3.294353789487011 -2.5906800345307266
lfemur -9.796760439816211 -0.06886698008959158 -22.919867538120293
ltibia 19.513781207993475
lfoot 7.9594652079011015 -6.578056398281022
ltoes -0.8133879909375201
rfemur -17.354842536256335 4.164988250362767 25.234442561895932
rtibia 31.370710078617964
rfoot -6.360476454628429 -6.950706399434628
rtoes 4.778256691924457
lowerback 11.330606688928583 0.4063014388850575 2.3571124317092593
upperback 0.45030964106102817 0.9239715656560641 1.3768118238652045
thorax -5.4812038042218365 0.3862697580757111 0.09483282165090756
lowerneck -16.100944247907314 -2.7567589604951954 -3.535621474897142
upperneck 22.191854067863535 -3.2117029906031176 1.0373474476369677
head 9.578328151460575 -1.6362004588774528 0.8730372676960787
lclavicle 1.4573377405918433e-16 2.360200307403551e-16
lhumerus -30.964559072514398 4.010277649871287 79.97140568846447
lradius 26.83537866863503
lwrist 7.428174944257661
lhand -29.704254968086875 19.717897165681727
lfingers 7.12502
lthumb -2.934611714862089 50.09607709471832
rclavicle 1.4653144827006368e-16 2.36660873724372e-16
rhumerus -25.80949496369081 -18.040017684890692 -76.91678432251905
rradius 19.105649809822264
rwrist 10.15261929731045
rhand -17.855821368640306 23.047597527010176
rfingers 7.12502
rthumb 7.855715274855578 -6.887017697991612
167
root -0.19967881611892602 17.776302724275727 54.74631761775041 -2.435318700968018 -3.018180259874578 -2.565059125633053
lfemur -9.023286976625037 -0.36006562781148643 -22.921290518132135
ltibia 19.632328983818404
lfoot 8.259062841779958 -6.9004962103136585
ltoes -0.6365394525268635
rfemur -16.70045923079229 4.205944325744244 25.32101410433052
rtibia 30.362581052788695
rfoot -6.026922108784669 -6.777711869355388
rtoes 4.668879776102218
lowerback 11.310960898525074 0.3377537424165665 2.460249469819554
upperback 0.41318490468504887 0.8408821153741093 1.3901290825898385
thorax -5.448542078159952 0.3479657387496376 0.048303161629472124
lowerneck -16.092668219914913 -2.743588394255685 -3.5500684698715865
upperneck 22.203245346935336 -3.1863056264071905 0.9882320465941312
head 9.569229186782994 -1.6270986873275906 0.8700053830335763
lclavicle 1.4554045515603694e-16 2.358710912507734e-16
lhumerus -31.16235842333577 3.8108650178633208 80.01014228796468
lradius 27.21477684392756
lwrist 7.5746438756457355
lhand -29.786448058663364 19.421836653591516
lfingers 7.12502
lthumb -2.9717086158560773 49.72449407838049
rclavicle 1.4624882222444265e-16 2.3644355198981186e-16
rhumerus -25.821204236034156 -18.03021891263538 -76.90398361841838
rradius 19.00963307495838
rwrist 10.314913405823168
rhand -17.81904350327306 23.09781246000964
rfingers 7.12502
rthumb 7.8426210555624785 -6.834799621793124
168
root -0.21192390030713482 17.78016095225052 54.784213218241604 -2.482222740728544 -2.937298614611069 -2.757296313223174
lfemur -8.352762261996673 -0.4735174108371252 -22.66151919899616
ltibia 20.058116661587462
lfoot 8.37281723799866 -7.598220935425109
ltoes -0.35141764942662057
rfemur -16.051499038881467 4.33925025048419 25.655784105442045
rtibia 29.713209123164816
rfoot -5.746984092084949 -6.242368348188083
rtoes 5.356146942294325
lowerback 11.286663163609525 0.3468156433231856 2.639403708372421
upperback 0.3769374333393348 0.9075230478133138 1.4429363239912796
thorax -5.413610484981912 0.378771708321513 -0.024962009978222066
lowerneck -16.073962778778338 -2.73061564630673 -3.5654956337116364
upperneck 22.25687044613406 -3.164502232263253 0.9178933448557639
head 9.58366637375105 -1.6218019019528938 0.8601619141933601
lclavicle 1.4580016330936583e-16 2.3607023393814876e-16
lhumerus -31.41022653193769 3.6381895398024104 80.02218045190924
lradius 27.46099861406067
lwrist 7.7003683169096195
lhand -29.83627873164005 18.940074740547608
lfingers 7.12502
lthumb -2.9815251401372853 49.23970144763051
rclavicle 1.4622551830157819e-16 2.364256636970638e-16
rhumerus -25.86599839990959 -18.123519376354498 -76.81093421582821
rradius 18.795047213910387
rwrist 10.709533586047844
rhand -17.833473292740056 23.07047114301643
rfingers 7.12502
rthumb 7.773760905660209 -6.884449374940594
169
root -0.21864203898917622 17.781490779349923 54.82399605380443 -2.450886774019853 -2.6371338744399244 -2.7943935517199447
lfemur -7.878122269575091 -0.7988960391766542 -22.517379962474404
ltibia 20.58558825268532
lfoot 8.180454110071079 -8.10427746057365
ltoes -0.02725398941750745
rfemur -15.304265763465612 4.292785263376015 25.858700992483527
rtibia 29.270988618160125
rfoot -5.597442841313194 -5.583074659075764
rtoes 6.089317898100348
lowerback 11.163054438454095 0.27738384220726153 2.7973425148803504
upperback 0.35179652973695086 0.8555799461978679 1.462759469227291
thorax -5.283069717196078 0.3481091116749675 -0.11128052251718923
lowerneck -16.067228009382678 -2.7154636768 -3.563493689950957
upperneck 22.27960447043334 -3.1450962781281335 0.8544231320579487
head 9.583221129879481 -1.6172721672420505 0.8472107851080217
lclavicle 1.4586180705698478e-16 2.361171459165145e-16
lhumerus -31.75679776222994 3.6589580862298647 79.98407583656623
lradius 27.56092274865995
lwrist 7.380910287202335
lhand -29.821946595801144 18.80526795179301
lfingers 7.12502
lthumb -3.002504133051322 48.98118368083157
rclavicle 1.4591784443644751e-16 2.361891103624689e-16
rhumerus -25.90803306490522 -18.283683663429468 -76.67070292784703
rradius 18.596427591807434
rwrist 10.876025251568652
rhand -17.847605868024953 23.1423567955576
rfingers 7.12502
rthumb 7.780611171675328 -6.814875600498656
